<svg width="132" height="35" viewBox="0 0 132 35" fill="none" xmlns="http://www.w3.org/2000/svg">
<path d="M30.52 12.2468C30.88 12.2468 31 12.3768 31 12.7268V20.6468H35.07C35.42 20.6468 35.55 20.7768 35.55 21.1268V21.8268C35.55 22.1768 35.42 22.3068 35.07 22.3068H29.71C29.36 22.3068 29.22 22.1768 29.22 21.8268V12.7268C29.22 12.3768 29.36 12.2468 29.71 12.2468H30.52Z" fill="black"/>
<path d="M39.1 15.7369C39.1 13.4269 40.56 12.0369 43.1 12.0369C45.64 12.0369 47.1 13.4269 47.1 15.7369V18.8169C47.1 21.1269 45.63 22.5169 43.1 22.5169C40.57 22.5169 39.1 21.1269 39.1 18.8169V15.7369ZM45.42 15.7369C45.42 14.4369 44.61 13.7369 43.15 13.7369C41.69 13.7369 40.89 14.4469 40.89 15.7369V18.8369C40.89 20.1469 41.69 20.8369 43.15 20.8369C44.61 20.8369 45.42 20.1169 45.42 18.8369V15.7369Z" fill="black"/>
<path d="M59.0101 16.7968C59.4001 16.7968 59.4901 16.9268 59.4901 17.2768V19.1768C59.5007 19.6243 59.411 20.0686 59.2276 20.4769C59.0441 20.8853 58.7717 21.2474 58.4301 21.5368C57.5818 22.2123 56.5122 22.5474 55.4301 22.4768C52.8401 22.4768 51.4301 21.0868 51.4301 18.7768V15.6768C51.4301 13.3968 52.8901 11.9968 55.4301 11.9968C57.4301 11.9968 58.7301 12.7868 59.2801 14.3668C59.3109 14.4262 59.3274 14.4919 59.3283 14.5587C59.3292 14.6256 59.3145 14.6918 59.2854 14.7519C59.2563 14.8121 59.2135 14.8647 59.1605 14.9055C59.1075 14.9462 59.0457 14.9741 58.9801 14.9868L58.2001 15.2568C57.8601 15.3768 57.7201 15.3068 57.6001 14.9568C57.4344 14.5297 57.1311 14.1699 56.7381 13.9345C56.3451 13.6991 55.8849 13.6013 55.4301 13.6568C53.9601 13.6568 53.1601 14.3668 53.1601 15.6568V18.8368C53.1601 20.1468 53.9701 20.8368 55.4301 20.8368C56.8901 20.8368 57.7901 20.1668 57.7901 19.1868V18.4468H55.6201C55.2601 18.4468 55.1301 18.3068 55.1301 17.9568V17.2768C55.1301 16.9268 55.2601 16.7968 55.6201 16.7968H59.0101Z" fill="black"/>
<path d="M63.62 15.7369C63.62 13.4269 65.08 12.0369 67.62 12.0369C70.16 12.0369 71.62 13.4269 71.62 15.7369V18.8169C71.62 21.1269 70.15 22.5169 67.62 22.5169C65.09 22.5169 63.62 21.1269 63.62 18.8169V15.7369ZM69.93 15.7369C69.93 14.4369 69.12 13.7369 67.67 13.7369C66.22 13.7369 65.4 14.4469 65.4 15.7369V18.8369C65.4 20.1469 66.21 20.8369 67.67 20.8369C69.13 20.8369 69.93 20.1169 69.93 18.8369V15.7369Z" fill="black"/>
<path d="M76.33 12.5368C76.33 12.3168 76.4 12.2468 76.62 12.2468H77.08C77.3 12.2468 77.35 12.3168 77.35 12.5368V22.0168C77.35 22.2368 77.35 22.3068 77.08 22.3068H76.62C76.4 22.3068 76.33 22.2368 76.33 22.0168V12.5368Z" fill="black"/>
<path d="M86.4599 12.2468C87.2927 12.2468 88.0913 12.5776 88.6802 13.1665C89.2691 13.7553 89.5999 14.554 89.5999 15.3868C89.5999 16.2196 89.2691 17.0183 88.6802 17.6071C88.0913 18.196 87.2927 18.5268 86.4599 18.5268H83.4599V22.0168C83.4599 22.2368 83.4099 22.3068 83.1999 22.3068H82.7299C82.5199 22.3068 82.4399 22.2368 82.4399 22.0168V12.5368C82.4399 12.3168 82.5199 12.2468 82.7299 12.2468H86.4599ZM86.3699 17.5368C86.6562 17.5368 86.9397 17.4804 87.2042 17.3709C87.4686 17.2613 87.709 17.1007 87.9114 16.8983C88.1138 16.6959 88.2744 16.4555 88.384 16.1911C88.4935 15.9266 88.5499 15.6431 88.5499 15.3568C88.5499 15.0705 88.4935 14.787 88.384 14.5225C88.2744 14.2581 88.1138 14.0177 87.9114 13.8153C87.709 13.6129 87.4686 13.4523 87.2042 13.3427C86.9397 13.2332 86.6562 13.1768 86.3699 13.1768H83.3699V17.5368H86.3699Z" fill="black"/>
<path d="M97.41 12.0469C98.1821 11.9617 98.961 12.1278 99.6312 12.5205C100.301 12.9133 100.827 13.5117 101.13 14.2269C101.21 14.3869 101.13 14.5169 100.97 14.5969L100.53 14.7969C100.35 14.8669 100.28 14.8569 100.17 14.6669C99.9434 14.1361 99.5539 13.6911 99.0577 13.3963C98.5616 13.1015 97.9845 12.9721 97.41 13.0269C95.72 13.0269 94.8 13.6969 94.8 14.8969C94.7902 15.2636 94.9133 15.6216 95.1468 15.9046C95.3802 16.1876 95.7081 16.3767 96.07 16.4369C96.6078 16.6123 97.1655 16.7198 97.73 16.7569C98.4133 16.7933 99.0874 16.9315 99.73 17.1669C100.223 17.3228 100.647 17.6434 100.931 18.075C101.215 18.5066 101.342 19.0228 101.29 19.5369C101.29 21.4069 99.93 22.5369 97.43 22.5369C96.61 22.6307 95.7826 22.4407 95.0857 21.9985C94.3888 21.5564 93.8644 20.8887 93.6 20.1069C93.5823 20.0713 93.5728 20.0322 93.572 19.9924C93.5712 19.9526 93.5793 19.9132 93.5955 19.8769C93.6117 19.8406 93.6358 19.8083 93.666 19.7824C93.6961 19.7564 93.7316 19.7375 93.77 19.7269L94.21 19.5669C94.2446 19.5527 94.2819 19.5459 94.3193 19.5469C94.3567 19.5479 94.3935 19.5567 94.4274 19.5727C94.4612 19.5887 94.4914 19.6115 94.5159 19.6398C94.5405 19.6681 94.5589 19.7011 94.57 19.7369C94.7937 20.3018 95.1915 20.7808 95.7057 21.1045C96.2199 21.4281 96.8239 21.5796 97.43 21.5369C99.32 21.5369 100.25 20.8769 100.25 19.5369C100.268 19.1847 100.16 18.8376 99.9454 18.5574C99.7312 18.2773 99.4245 18.0822 99.08 18.0069C98.5626 17.8526 98.029 17.7586 97.49 17.7269L96.41 17.5869C96.072 17.5152 95.7382 17.425 95.41 17.3169C95.0858 17.219 94.7836 17.0594 94.52 16.8469C94.2547 16.6067 94.0456 16.3111 93.9073 15.981C93.7691 15.6509 93.7051 15.2945 93.72 14.9369C93.79 13.1869 95.1 12.0469 97.41 12.0469Z" fill="black"/>
<path d="M106.68 18.8868C106.722 19.594 107.033 20.2583 107.549 20.744C108.065 21.2297 108.747 21.5001 109.455 21.5001C110.163 21.5001 110.845 21.2297 111.361 20.744C111.877 20.2583 112.187 19.594 112.23 18.8868V12.5368C112.23 12.3168 112.3 12.2468 112.52 12.2468H112.98C113.2 12.2468 113.27 12.3168 113.27 12.5368V18.8768C113.27 21.1468 111.93 22.5168 109.46 22.5168C106.99 22.5168 105.65 21.1468 105.65 18.8768V12.5368C105.65 12.3168 105.72 12.2468 105.93 12.2468H106.4C106.61 12.2468 106.68 12.3168 106.68 12.5368V18.8868Z" fill="black"/>
<path d="M127.07 12.2468C127.29 12.2468 127.36 12.3168 127.36 12.5368V22.0168C127.36 22.2368 127.29 22.3068 127.07 22.3068H126.65C126.44 22.3068 126.37 22.2368 126.37 22.0168V16.2468C126.37 15.4073 126.427 14.5687 126.54 13.7368H126.48C126.168 14.4975 125.803 15.2359 125.39 15.9468L123.24 19.7368C123.214 19.8026 123.168 19.8588 123.109 19.8981C123.05 19.9373 122.981 19.9578 122.91 19.9568H122.63C122.558 19.9572 122.488 19.9365 122.427 19.8975C122.367 19.8584 122.319 19.8026 122.29 19.7368L120.11 15.9068C119.723 15.2061 119.389 14.4774 119.11 13.7268H119.05C119.152 14.5663 119.206 15.4111 119.21 16.2568V22.0168C119.21 22.2368 119.14 22.3068 118.92 22.3068H118.53C118.31 22.3068 118.24 22.2368 118.24 22.0168V12.5368C118.24 12.3168 118.31 12.2468 118.53 12.2468H118.89C118.972 12.2392 119.055 12.2571 119.126 12.2983C119.198 12.3395 119.255 12.4019 119.29 12.4768L122.79 18.6968L126.27 12.5368C126.38 12.3268 126.44 12.2968 126.66 12.2968L127.07 12.2468Z" fill="black"/>
<path d="M12.73 20.7868V28.0168C12.73 28.294 12.6199 28.5598 12.4239 28.7557C12.228 28.9517 11.9622 29.0618 11.685 29.0618C11.4079 29.0618 11.1421 28.9517 10.9461 28.7557C10.7501 28.5598 10.64 28.294 10.64 28.0168V20.7968C10.931 21.0093 11.2798 21.1279 11.64 21.1368C12.0326 21.148 12.4173 21.0245 12.73 20.7868ZM21.63 18.6968C21.3648 18.6968 21.1104 18.8022 20.9229 18.9897C20.7354 19.1772 20.63 19.4316 20.63 19.6968V20.9568C20.63 21.234 20.7401 21.4998 20.9361 21.6957C21.132 21.8917 21.3978 22.0018 21.675 22.0018C21.9522 22.0018 22.218 21.8917 22.4139 21.6957C22.6099 21.4998 22.72 21.234 22.72 20.9568V19.7468C22.7278 19.6034 22.7046 19.46 22.652 19.3264C22.5994 19.1928 22.5187 19.072 22.4152 18.9724C22.3118 18.8728 22.1881 18.7966 22.0527 18.749C21.9172 18.7015 21.773 18.6837 21.63 18.6968ZM8.37 23.5268C8.01017 23.516 7.66183 23.3976 7.37 23.1868V30.4368C7.37 30.7153 7.48062 30.9824 7.67754 31.1793C7.87445 31.3762 8.14152 31.4868 8.42 31.4868C8.69848 31.4868 8.96555 31.3762 9.16246 31.1793C9.35938 30.9824 9.47 30.7153 9.47 30.4368V23.2368C9.14345 23.4479 8.75816 23.5495 8.37 23.5268ZM18.37 16.5268C18.2345 16.52 18.0991 16.5409 17.9719 16.5881C17.8448 16.6353 17.7286 16.7079 17.6303 16.8014C17.5321 16.895 17.454 17.0075 17.4006 17.1322C17.3473 17.2569 17.3198 17.3912 17.32 17.5268V23.0968C17.32 23.3753 17.4306 23.6424 17.6275 23.8393C17.8245 24.0362 18.0915 24.1468 18.37 24.1468C18.6485 24.1468 18.9156 24.0362 19.1125 23.8393C19.3094 23.6424 19.42 23.3753 19.42 23.0968V17.5968C19.428 17.4525 19.4046 17.3082 19.3514 17.1738C19.2982 17.0394 19.2166 16.9181 19.112 16.8183C19.0074 16.7185 18.8825 16.6425 18.7458 16.5957C18.6091 16.5488 18.4638 16.5321 18.32 16.5468L18.37 16.5268ZM15.05 18.6668C14.6733 18.6642 14.3067 18.5455 14 18.3268V25.5968C14 25.8753 14.1106 26.1424 14.3075 26.3393C14.5045 26.5362 14.7715 26.6468 15.05 26.6468C15.3285 26.6468 15.5955 26.5362 15.7925 26.3393C15.9894 26.1424 16.1 25.8753 16.1 25.5968V18.3368C15.7828 18.5731 15.3955 18.6963 15 18.6868L15.05 18.6668ZM6.1 24.2368V3.92683C6.09737 3.67926 5.99717 3.44274 5.82117 3.26861C5.64517 3.09448 5.40758 2.99682 5.16 2.99683H4.94C4.69242 2.99682 4.45483 3.09448 4.27883 3.26861C4.10283 3.44274 4.00263 3.67926 4 3.92683V24.2368C4 24.4861 4.09904 24.7252 4.27532 24.9015C4.4516 25.0778 4.6907 25.1768 4.94 25.1768H5.16C5.40931 25.1768 5.6484 25.0778 5.82468 24.9015C6.00097 24.7252 6.1 24.4861 6.1 24.2368ZM8.48 22.7568H8.26C8.0107 22.7568 7.7716 22.6578 7.59532 22.4815C7.41904 22.3052 7.32 22.0661 7.32 21.8168V6.34683C7.32264 6.09927 7.42283 5.86273 7.59883 5.68861C7.77483 5.51448 8.01242 5.41682 8.26 5.41683H8.48C8.72758 5.41682 8.96517 5.51448 9.14117 5.68861C9.31717 5.86273 9.41737 6.09927 9.42 6.34683V21.8368C9.42 22.0861 9.32096 22.3252 9.14468 22.5015C8.9684 22.6778 8.7293 22.7768 8.48 22.7768V22.7568ZM11.79 20.3768H11.56C11.3134 20.3768 11.0768 20.2788 10.9024 20.1044C10.728 19.93 10.63 19.6935 10.63 19.4468V8.74683C10.6287 8.62386 10.6518 8.50185 10.6979 8.38786C10.744 8.27387 10.8123 8.17017 10.8988 8.08275C10.9853 7.99533 11.0883 7.92593 11.2018 7.87857C11.3153 7.83121 11.437 7.80682 11.56 7.80683H11.79C12.0376 7.80947 12.2741 7.90966 12.4482 8.08566C12.6224 8.26166 12.72 8.49925 12.72 8.74683V19.4468C12.72 19.6935 12.622 19.93 12.4476 20.1044C12.2732 20.2788 12.0367 20.3768 11.79 20.3768ZM15.1 17.9268H14.89C14.6424 17.9268 14.4048 17.8292 14.2288 17.655C14.0528 17.4809 13.9526 17.2444 13.95 16.9968V11.2368C13.9418 11.1084 13.96 10.9797 14.0036 10.8586C14.0471 10.7376 14.1151 10.6267 14.2032 10.533C14.2913 10.4392 14.3977 10.3646 14.5159 10.3136C14.634 10.2627 14.7613 10.2365 14.89 10.2368H15.11C15.3593 10.2368 15.5984 10.3358 15.7747 10.5121C15.951 10.6884 16.05 10.9275 16.05 11.1768V16.9768C16.0513 17.1011 16.028 17.2244 15.9813 17.3396C15.9347 17.4548 15.8657 17.5596 15.7782 17.648C15.6908 17.7363 15.5868 17.8064 15.472 17.8543C15.3573 17.9022 15.2343 17.9268 15.11 17.9268H15.1ZM18.42 15.7768H18.2C17.9507 15.7768 17.7116 15.6778 17.5353 15.5015C17.359 15.3252 17.26 15.0861 17.26 14.8368V13.3468C17.2626 13.0992 17.3628 12.8627 17.5388 12.6886C17.7148 12.5144 17.9524 12.4168 18.2 12.4168H18.42C18.6676 12.4168 18.9052 12.5144 19.0812 12.6886C19.2572 12.8627 19.3574 13.0992 19.36 13.3468V14.8368C19.36 15.0844 19.2624 15.322 19.0882 15.498C18.9141 15.674 18.6776 15.7742 18.43 15.7768H18.42Z" fill="black"/>
</svg>
