<svg width="54" height="35" viewBox="0 0 54 35" fill="none" xmlns="http://www.w3.org/2000/svg">
<g clip-path="url(#clip0_96_390)">
<path d="M50.052 1.09057C50.052 1.69464 50.5417 2.18432 51.1458 2.18432H52.2395C52.8436 2.18432 53.3333 1.69464 53.3333 1.09057C53.3333 0.486515 52.8436 -0.00317383 52.2395 -0.00317383H51.1458C50.5417 -0.00317383 50.052 0.486515 50.052 1.09057Z" fill="black"/>
<path d="M18.3333 34.9968H23.6465L22.0997 33.45C21.6895 33.0398 21.1331 32.8093 20.553 32.8093H18.3333C9.87638 32.8093 3.02075 25.9537 3.02075 17.4968C3.02075 9.03995 9.87638 2.18433 18.3333 2.18433H35.8333C44.2901 2.18433 51.1458 9.03995 51.1458 17.4968C51.1458 25.9537 44.2901 32.8093 35.8333 32.8093H29.2868C28.4166 32.8093 27.582 32.4636 26.9666 31.8483L25.1545 30.0361C24.1289 29.0105 22.7378 28.4343 21.2874 28.4343H18.3333C12.2926 28.4343 7.39575 23.5375 7.39575 17.4968C7.39575 11.4562 12.2926 6.55933 18.3333 6.55933H35.8333C41.8739 6.55933 46.7708 11.4562 46.7708 17.4968C46.7708 23.5375 41.8739 28.4343 35.8333 28.4343H31.6298C30.7596 28.4343 29.925 28.0886 29.3096 27.4733L27.4974 25.6611C26.4718 24.6355 25.0808 24.0593 23.6304 24.0593H18.3333C14.7089 24.0593 11.7708 21.1212 11.7708 17.4968C11.7708 13.8725 14.7089 10.9343 18.3333 10.9343H35.8333C39.4576 10.9343 42.3958 13.8725 42.3958 17.4968C42.3958 21.077 39.5288 23.9876 35.9656 24.058L35.9649 24.0593H34.3642C33.4939 24.0593 32.6594 23.7136 32.044 23.0983L30.2318 21.2861C29.3903 20.4445 28.3027 19.9056 27.1382 19.7393L27.0833 19.6843H18.3333C17.1251 19.6843 16.1458 18.7049 16.1458 17.4968C16.1458 16.2887 17.1251 15.3093 18.3333 15.3093H35.8333C37.0414 15.3093 38.0208 16.2887 38.0208 17.4968C38.0208 18.7049 37.0414 19.6843 35.8333 19.6843H31.4583L33.0051 21.2312C33.4153 21.6413 33.9717 21.8718 34.5518 21.8718H35.8333C38.2495 21.8718 40.2083 19.9131 40.2083 17.4968C40.2083 15.0806 38.2495 13.1218 35.8333 13.1218H18.3333C15.917 13.1218 13.9583 15.0806 13.9583 17.4968C13.9583 19.9131 15.917 21.8718 18.3333 21.8718H26.3648C27.2351 21.8718 28.0696 22.2175 28.685 22.8328L30.4972 24.6451C31.5228 25.6706 32.9138 26.2468 34.3642 26.2468H36.3801V26.23C40.9579 25.9478 44.5833 22.1456 44.5833 17.4968C44.5833 12.6644 40.6657 8.74683 35.8333 8.74683H18.3333C13.5008 8.74683 9.58325 12.6644 9.58325 17.4968C9.58325 22.3294 13.5008 26.2468 18.3333 26.2468H23.6304C24.5007 26.2468 25.3353 26.5925 25.9507 27.2078L27.7629 29.0201C28.7885 30.0456 30.1794 30.6218 31.6298 30.6218H35.8333C43.082 30.6218 48.9583 24.7456 48.9583 17.4968C48.9583 10.2481 43.082 4.37183 35.8333 4.37183H18.3333C11.0845 4.37183 5.20825 10.2481 5.20825 17.4968C5.20825 24.7456 11.0845 30.6218 18.3333 30.6218H21.2874C22.1577 30.6218 22.9923 30.9675 23.6077 31.5828L25.4199 33.3951C26.4455 34.4206 27.8365 34.9968 29.2868 34.9968H35.8333C45.4982 34.9968 53.3333 27.1618 53.3333 17.4968C53.3333 7.83184 45.4982 -0.00317467 35.8333 -0.00317383L18.3333 -0.00317021C8.66826 -0.00316937 0.833251 7.83185 0.833252 17.4968C0.833253 27.1618 8.66827 34.9968 18.3333 34.9968Z" fill="black"/>
</g>
<defs>
<clipPath id="clip0_96_390">
<rect width="52.5" height="35" fill="white" transform="translate(0.833252 -0.00317383)"/>
</clipPath>
</defs>
</svg>
