<svg width="79" height="31" viewBox="0 0 79 31" fill="none" xmlns="http://www.w3.org/2000/svg">
<g clip-path="url(#clip0_96_393)">
<path d="M18.6813 0.496826C15.6352 0.496826 12.7139 1.70688 10.56 3.86079L3.53059 10.8902C1.37668 13.0441 0.166626 15.9654 0.166626 19.0115C0.166626 25.3547 5.30877 30.4968 11.6519 30.4968C14.698 30.4968 17.6193 29.2867 19.7732 27.1328L24.6355 22.2705C24.6355 22.2704 24.6356 22.2706 24.6355 22.2705L38.8026 8.10343C39.8313 7.07474 41.2265 6.49683 42.6813 6.49683C45.1169 6.49683 47.1818 8.08424 47.8977 10.2809L52.3688 5.80979C50.3291 2.61517 46.7526 0.496826 42.6813 0.496826C39.6352 0.496826 36.7139 1.70688 34.56 3.86079L15.5306 22.8902C14.5019 23.9189 13.1067 24.4968 11.6519 24.4968C8.62247 24.4968 6.16663 22.041 6.16663 19.0115C6.16663 17.5567 6.74454 16.1615 7.77323 15.1328L14.8026 8.10343C15.8313 7.07474 17.2265 6.49683 18.6813 6.49683C21.117 6.49683 23.1818 8.08431 23.8977 10.281L28.3689 5.8099C26.3292 2.61523 22.7527 0.496826 18.6813 0.496826Z" fill="black"/>
<path d="M39.5306 22.8902C38.5019 23.9189 37.1067 24.4968 35.6519 24.4968C33.2166 24.4968 31.1519 22.9098 30.4358 20.7135L25.9648 25.1845C28.0046 28.3787 31.5809 30.4968 35.6519 30.4968C38.698 30.4968 41.6193 29.2867 43.7732 27.1328L62.8026 8.10343C63.8313 7.07474 65.2265 6.49683 66.6813 6.49683C69.7108 6.49683 72.1666 8.95267 72.1666 11.9821C72.1666 13.4369 71.5887 14.8321 70.56 15.8608L63.5306 22.8902C62.5019 23.9189 61.1067 24.4968 59.6519 24.4968C57.2164 24.4968 55.1516 22.9095 54.4356 20.713L49.9646 25.1841C52.0043 28.3786 55.5807 30.4968 59.6519 30.4968C62.698 30.4968 65.6193 29.2867 67.7732 27.1328L74.8026 20.1034C76.9565 17.9495 78.1666 15.0282 78.1666 11.9821C78.1666 5.63897 73.0245 0.496826 66.6813 0.496826C63.6352 0.496826 60.7139 1.70688 58.56 3.86079L39.5306 22.8902Z" fill="black"/>
</g>
<defs>
<clipPath id="clip0_96_393">
<rect width="78" height="30" fill="white" transform="translate(0.166626 0.496826)"/>
</clipPath>
</defs>
</svg>
