<svg width="109" height="16" viewBox="0 0 109 16" fill="none" xmlns="http://www.w3.org/2000/svg">
<path d="M7.106 15.579C11.792 15.579 13.662 13.423 13.662 11.025C13.662 9.001 12.474 7.395 9.174 6.867L5.038 6.207C3.806 5.987 3.322 5.679 3.322 4.821C3.322 3.875 4.048 3.413 6.424 3.413C9.35 3.413 10.076 4.007 10.076 5.415V5.723H13.398V5.591C13.398 2.489 11.286 0.399 6.754 0.399C1.804 0.399 0 2.731 0 4.953C0 7.351 1.562 8.671 4.202 9.089L8.338 9.683C9.856 9.947 10.362 10.277 10.362 11.179C10.362 12.169 9.746 12.565 7.106 12.565C4.114 12.565 3.432 12.015 3.432 10.651V10.255H0.132V10.387C0.132 13.819 2.64 15.579 7.106 15.579Z" fill="black"/>
<path d="M24.5959 15.579C29.5899 15.579 32.6039 12.587 32.6039 7.989C32.6039 6.163 32.1419 4.601 31.2619 3.369L32.8239 1.917L31.2399 0.244999L29.6119 1.763C28.2919 0.882999 26.6199 0.399 24.5959 0.399C19.7119 0.399 16.6759 3.391 16.6759 7.989C16.6759 9.793 17.1379 11.355 17.9959 12.587L16.3899 14.083L17.9739 15.755L19.6459 14.193C20.9439 15.095 22.6159 15.579 24.5959 15.579ZM20.1739 7.989C20.1739 4.711 21.3619 3.567 24.5959 3.567C25.6739 3.567 26.5539 3.699 27.2139 3.985L20.4819 10.277C20.2619 9.661 20.1739 8.913 20.1739 7.989ZM24.5959 12.411C23.5179 12.411 22.6599 12.279 22.0219 11.993L28.7759 5.701C28.9739 6.295 29.0839 7.065 29.0839 7.989C29.0839 11.267 27.8299 12.411 24.5959 12.411Z" fill="black"/>
<path d="M48.121 15.359V12.389H39.343V0.618999H36.043V15.359H48.121Z" fill="black"/>
<path d="M61.2172 15.359L67.3333 0.618999H63.3732L59.0173 12.015H58.7972L54.3752 0.618999H50.3932L56.5092 15.359H61.2172Z" fill="black"/>
<path d="M82.5092 15.359V12.389H73.3352V9.419H82.1792V6.471H73.3352V3.589H82.5092V0.618999H70.0352V15.359H82.5092Z" fill="black"/>
<path d="M89.3 15.359V0.618999H86V15.359H89.3Z" fill="black"/>
<path d="M99.9794 15.579C103.169 15.579 104.709 14.127 105.215 12.191H105.391V15.359H108.449V7.571H100.155V10.013H105.149C105.061 11.883 104.027 12.411 100.639 12.411C97.4054 12.411 96.1954 11.267 96.1954 7.989C96.1954 4.711 97.4494 3.567 100.793 3.567C103.631 3.567 104.753 4.381 104.753 6.097V6.273H108.427V6.097C108.427 2.555 105.501 0.399 100.881 0.399C95.8214 0.399 92.6974 3.391 92.6974 7.989C92.6974 12.587 95.4694 15.579 99.9794 15.579Z" fill="black"/>
</svg>
