<svg width="96" height="23" viewBox="0 0 96 23" fill="none" xmlns="http://www.w3.org/2000/svg">
<path d="M0.450806 22.1843H21.8258V0.809326H0.450806V22.1843ZM17.7117 9.44016H13.195V4.92349H17.7117V9.44016ZM4.56414 4.92349H9.08332V13.5535H17.7117V18.0702H4.56414V4.92349ZM35.745 0.809326C33.6312 0.809326 31.5648 1.43614 29.8073 2.6105C28.0497 3.78486 26.6799 5.45402 25.871 7.40691C25.0621 9.35983 24.8505 11.5087 25.2628 13.5818C25.6752 15.655 26.6931 17.5593 28.1877 19.054C29.6824 20.5487 31.5867 21.5666 33.6599 21.979C35.7332 22.3913 37.882 22.1797 39.8349 21.3708C41.7878 20.5619 43.4569 19.1921 44.6313 17.4345C45.8057 15.6769 46.4325 13.6106 46.4325 11.4968C46.4292 8.66333 45.3021 5.94686 43.2985 3.94328C41.2949 1.9397 38.5785 0.812635 35.745 0.809326ZM35.745 18.0702C34.4449 18.0702 33.174 17.6847 32.093 16.9623C31.0121 16.2401 30.1695 15.2135 29.672 14.0123C29.1745 12.8112 29.0443 11.4896 29.2979 10.2144C29.5516 8.93933 30.1777 7.76808 31.0969 6.84878C32.0162 5.92948 33.1875 5.30343 34.4626 5.0498C35.7377 4.79617 37.0593 4.92634 38.2605 5.42386C39.4616 5.92138 40.4882 6.7639 41.2105 7.84491C41.9328 8.92583 42.3183 10.1967 42.3183 11.4968C42.3157 13.2394 41.6222 14.9098 40.3901 16.142C39.1579 17.3742 37.4875 18.0675 35.745 18.0702ZM84.6775 0.809326C82.5633 0.809168 80.4972 1.43583 78.7396 2.61009C76.9819 3.78435 75.612 5.45345 74.8029 7.40633C73.9939 9.35916 73.7821 11.5082 74.1944 13.5813C74.6067 15.6546 75.6245 17.559 77.1192 19.0537C78.6137 20.5485 80.5181 21.5665 82.5917 21.9789C84.6642 22.3913 86.8133 22.1797 88.7667 21.3709C90.7192 20.562 92.3883 19.1922 93.5625 17.4346C94.7375 15.677 95.3642 13.6107 95.3642 11.4968C95.3608 8.66349 94.2342 5.94713 92.2308 3.94358C90.2275 1.94002 87.5108 0.81286 84.6775 0.809326ZM84.6775 18.0702C83.3775 18.0703 82.1067 17.6849 81.0253 16.9627C79.9442 16.2406 79.1016 15.214 78.6039 14.0129C78.1062 12.8118 77.976 11.4901 78.2295 10.2149C78.4831 8.93983 79.1091 7.76849 80.0283 6.84908C80.9476 5.92969 82.1192 5.30356 83.3942 5.04986C84.6692 4.79616 85.9908 4.92628 87.1917 5.42378C88.3933 5.92128 89.42 6.76379 90.1425 7.84483C90.8642 8.92583 91.25 10.1967 91.25 11.4968C91.2475 13.2392 90.5542 14.9095 89.3217 16.1417C88.09 17.3738 86.42 18.0673 84.6775 18.0702ZM60.2108 0.809326C58.097 0.809326 56.0307 1.43614 54.2732 2.6105C52.5156 3.78486 51.1457 5.45402 50.3368 7.40691C49.5279 9.35983 49.3163 11.5087 49.7287 13.5818C50.1411 15.655 51.1589 17.5593 52.6536 19.054C54.1482 20.5487 56.0526 21.5666 58.1257 21.979C60.1989 22.3913 62.3478 22.1797 64.3007 21.3708C66.2537 20.5619 67.9227 19.1921 69.0972 17.4345C70.2715 15.6769 70.8983 13.6106 70.8983 11.4968C70.895 8.66333 69.7679 5.94686 67.7643 3.94328C65.7607 1.9397 63.0443 0.812635 60.2108 0.809326ZM60.2108 18.0702C58.9995 18.0707 57.8117 17.7367 56.7782 17.1047C55.7449 16.4728 54.9062 15.5677 54.3547 14.4892C53.8034 13.4107 53.5607 12.2008 53.6535 10.9932C53.7463 9.78541 54.171 8.62683 54.8807 7.64524C55.5905 6.66371 56.5577 5.89733 57.6754 5.43075C58.7932 4.96416 60.0182 4.81551 61.2152 5.00119C62.4122 5.18688 63.5345 5.69969 64.4584 6.48301C65.3823 7.26633 66.0718 8.28974 66.4508 9.44016H60.2108V13.5535H66.4508C66.0167 14.8662 65.1804 16.0091 64.0603 16.8197C62.9403 17.6305 61.5935 18.0679 60.2108 18.0702Z" fill="black"/>
</svg>
